<svg width="80" height="80" viewBox="0 0 80 80" fill="none" xmlns="http://www.w3.org/2000/svg">
<g filter="url(#filter0_d)">
<circle cx="40" cy="37" r="36" fill="#589CE8"/>
</g>
<circle cx="40" cy="37" r="25" fill="white"/>
<path d="M25.0625 37.5117V49.8867C25.0625 51.0252 25.9886 51.9492 27.125 51.9492H37.4375V37.5117H25.0625Z" fill="#5B6880"/>
<path d="M53.9375 29.2611H47.4118C47.8799 28.9414 48.2821 28.6238 48.5626 28.3391C50.2271 26.6665 50.2271 23.944 48.5626 22.2713C46.9456 20.6419 44.1283 20.646 42.5133 22.2713C41.6182 23.1685 39.2463 26.8211 39.5743 29.2611H39.4258C39.7516 26.8211 37.3798 23.1685 36.4867 22.2713C34.8697 20.646 32.0523 20.646 30.4374 22.2713C28.775 23.944 28.775 26.6665 30.4353 28.3391C30.7179 28.6238 31.1201 28.9414 31.5883 29.2611H25.0625C23.9261 29.2611 23 30.1871 23 31.3236V34.4173C23 34.9866 23.462 35.4486 24.0312 35.4486H37.4375V31.3236H41.5625V35.4486H54.9688C55.538 35.4486 56 34.9866 56 34.4173V31.3236C56 30.1871 55.076 29.2611 53.9375 29.2611ZM37.3158 29.193C37.3158 29.193 37.2292 29.2611 36.9342 29.2611C35.5091 29.2611 32.7886 27.7802 31.8997 26.8851C31.0355 26.0147 31.0355 24.5957 31.8997 23.7253C32.3184 23.3046 32.8732 23.0736 33.4631 23.0736C34.0509 23.0736 34.6057 23.3046 35.0244 23.7253C36.4145 25.1237 37.7964 28.696 37.3158 29.193ZM42.0637 29.2611C41.7708 29.2611 41.6842 29.1951 41.6842 29.193C41.2036 28.696 42.5855 25.1237 43.9756 23.7253C44.8068 22.8859 46.2609 22.8818 47.1003 23.7253C47.9666 24.5957 47.9666 26.0147 47.1003 26.8851C46.2114 27.7802 43.4909 29.2611 42.0637 29.2611Z" fill="#5B6880"/>
<path d="M41.5625 37.5117V51.9492H51.875C53.0135 51.9492 53.9375 51.0252 53.9375 49.8867V37.5117H41.5625Z" fill="#5B6880"/>
<defs>
<filter id="filter0_d" x="0" y="0" width="80" height="80" filterUnits="userSpaceOnUse" color-interpolation-filters="sRGB">
<feFlood flood-opacity="0" result="BackgroundImageFix"/>
<feColorMatrix in="SourceAlpha" type="matrix" values="0 0 0 0 0 0 0 0 0 0 0 0 0 0 0 0 0 0 127 0"/>
<feOffset dy="3"/>
<feGaussianBlur stdDeviation="2"/>
<feColorMatrix type="matrix" values="0 0 0 0 0.206667 0 0 0 0 0.235 0 0 0 0 0.266667 0 0 0 0.5 0"/>
<feBlend mode="normal" in2="BackgroundImageFix" result="effect1_dropShadow"/>
<feBlend mode="normal" in="SourceGraphic" in2="effect1_dropShadow" result="shape"/>
</filter>
</defs>
</svg>
